<?xml version="1.0" encoding="UTF-8"?>
<svg id="Layer_2" data-name="Layer 2" xmlns="http://www.w3.org/2000/svg" viewBox="0 0 989.95 805.16">
  <defs>
    <style>
      .cls-1 {
        fill: #a281dc;
      }
    </style>
  </defs>
  <g id="Layer_2-2" data-name="Layer 2">
    <path class="cls-1" d="m984.74,557.91c-1.22-1.35-2.48-2.45-3.74-3.47-5.06-3.99-10.23-6.52-15.43-8.87-5.2-2.3-10.45-4.19-15.71-5.91-10.54-3.4-21.16-6.06-31.82-8.35-.5-.11-1.01.19-1.19.71-.2.57.08,1.21.63,1.42,10.17,3.93,20.21,8.2,29.87,13.07,4.81,2.46,9.54,5.05,14.01,7.92,4.43,2.86,8.76,6,11.95,9.47,1.56,1.69,2.82,3.57,3.11,4.78.14.59.05.87-.06.89-.1.03-.16-.04-.41.21-.49.48-2.03,1.56-3.91,2.36-1.89.83-4.12,1.53-6.43,2.11-4.65,1.16-9.69,1.85-14.78,2.32-5.1.47-10.3.69-15.52.76-20.92.24-42.14-1.65-63.2-4.37-10.27-1.35-20.52-2.93-30.74-4.73-6.69-1.17-13.11,3.27-14.74,10.25l-2.48,10.6c-2.01,8.59,4.05,16.91,12.41,17.06,11.36.2,22.73.16,34.1-.15,22.19-.67,44.37-2.18,66.6-5.98,5.56-.97,11.12-2.1,16.7-3.52,5.58-1.43,11.16-3.09,16.82-5.48,2.83-1.22,5.67-2.59,8.56-4.46,1.44-.93,2.9-2.03,4.35-3.36,1.44-1.34,2.9-2.95,4.14-5.13,1.23-2.14,2.15-4.99,2.13-7.84.02-2.85-.78-5.42-1.78-7.42-1.01-2.04-2.23-3.53-3.43-4.9Z"/>
    <path class="cls-1" d="m667.81,324.11c-17.02-4.8-34.21-8.96-51.52-12.6-.64,1.83-1.25,3.66-1.83,5.49-4.82,15.13-4.42,28.14-3.63,54.06.11,3.55.22,7.33.33,11.34,30.27,5.37,58.79,11.78,85.42,19.01-.7-16.67-2.79-29.86-6.18-36.54-5.52-10.86-13.41-26.36-22.59-40.75Z"/>
    <path class="cls-1" d="m414.44,307.34c-3.53-7.31-7.38-14.71-11.48-22.06-21.52-1.2-43.07-1.94-64.62-2.11-6.61,11.54-12.54,24.8-16.92,38.53-3.19,10-4.5,20.47-4.41,38.13,31.86-.59,66.38-.03,103.12,1.87.78-27.54.62-41.28-5.7-54.36Z"/>
    <path class="cls-1" d="m831.43,452.51c26.44,13.81,48.52,28.48,65.83,43.45,0,0,19.17-19.37,19.35-29.63.24-14.04-23.27-36.83-23.27-36.83-16.25-16.71-36.52-31.68-61.89-45.09-2.16,14.35-1.9,33.3-.02,68.1Z"/>
    <path class="cls-1" d="m790.77,662.29c3.52-4.11,6.35-8.75,8.47-13.9,2.13-5.2,3.3-10.63,3.5-16.31.07-2.06.04-4.79-.1-8.21-.15-3.43-1.02-6.7-2.6-9.82-1.6-3.14-4.12-5.68-7.58-7.64-3.48-1.98-8.51-2.56-15.12-1.8-8,.91-14.69,3.99-20.13,9.31-5.43,5.31-9.79,11.58-13.11,18.84-3.28,7.18-5.71,14.8-7.25,22.84-1.53,7.93-2.43,15.14-2.67,21.64-.27,7.29.05,13.59.99,18.92-.83,2.16-1.88,4.15-3.16,5.96-2.84,3.99-6.26,6.24-10.26,6.74-4.02.51-6.79-.15-8.3-1.94-1.53-1.8-2.15-5.83-1.92-12.13.92-24.42,1.5-48.74,1.73-72.97,4.31-.26,8.62-.54,12.94-.86.04-3.49.07-6.97.1-10.46-4.33.28-8.65.54-12.97.77.08-14.65.04-29.26-.13-43.83-10.46,2.17-20.94,4.17-31.43,6.01.16,12.97.24,25.96.22,38.98-2.37.05-4.74.1-7.1.13,0,3.61-.01,7.23-.02,10.85,2.36-.06,4.73-.12,7.09-.19-.1,23.32-.5,46.72-1.16,70.18-.61,5.82-2.38,10.71-5.32,14.69-2.95,3.99-6.56,6.15-10.82,6.47-4.28.32-7.24-.5-8.89-2.43-1.66-1.95-2.4-6.16-2.25-12.67.57-25.34.86-50.6.88-75.79,4.58-.02,9.17-.06,13.77-.13,0-3.64.01-7.27,0-10.9-4.6.03-9.2.04-13.79.01-.04-15.3-.18-30.59-.43-45.84-11.11,1.58-22.23,2.98-33.36,4.2.22,13.62.37,27.26.46,40.91-2.52-.1-5.04-.2-7.56-.32.03,3.79.05,7.57.07,11.36,2.51.09,5.03.18,7.54.25.04,8.47.03,16.94.01,25.41-.31.15-.61.31-.92.46-2.98,1.38-5.85,2.49-8.6,3.33-2.76.84-5.25,1.23-7.47,1.18-.55-.01-1.11-.03-1.66-.04-1.94-15.05-6.27-26.4-12.86-33.91-6.76-7.69-15.75-12.07-27.1-13.19-10.84-1.07-19.7.76-26.68,5.67-6.95,4.9-12.46,11.34-16.51,19.33-4.01,7.9-6.76,16.46-8.23,25.64-1.43,9.04-2.13,17.41-2.05,25.14.06,5.72.47,10.96,1.22,15.73-1.34,1.77-2.7,3.48-4.1,5.1-2.54,2.98-5.36,5.48-8.44,7.53-3.09,2.05-6.58,3.6-10.48,4.63-3.91,1.03-8.51,1.32-13.79.84-4.42-.41-8.38-1.39-11.87-2.95-3.51-1.56-6.46-3.96-8.85-7.19-2.41-3.26-4.25-7.64-5.53-13.17-1.3-5.59-2.03-12.75-2.19-21.54-.14-7.02.14-14.28.82-21.77.7-7.59,1.86-14.46,3.48-20.55,1.63-6.16,3.73-11.16,6.29-14.95,2.56-3.81,5.63-5.39,9.24-4.72,3.23.6,5.88,2.94,8,7.02,2.09,4.04,3.21,10.18,3.33,18.36.03,1.98,0,3.55-.07,4.72-.07,1.16-.27,2.5-.6,4,1.97,1.46,3.93,2.61,5.89,3.46,1.95.85,3.63,1.36,5.05,1.55,3.16.42,5.65-.9,7.44-3.96,1.81-3.06,2.67-7.15,2.6-12.29-.05-3.58-.63-7.42-1.73-11.52-1.11-4.13-3.01-8.12-5.69-11.98-2.7-3.89-6.33-7.41-10.87-10.58-4.59-3.2-10.37-5.5-17.37-6.93-11.42-2.35-20.68-1.36-27.88,3.19-7.18,4.53-12.88,10.85-17.06,18.97-1.75,3.41-3.26,7.01-4.53,10.77-1.03.33-2.06.64-3.1.91-3.54.91-6.96,1.51-10.24,1.82-3.29.31-6.27.14-8.93-.48-.66-.16-1.33-.32-1.99-.47-2.66-18.55-7.92-33.38-15.78-44.29-8.07-11.19-18.7-19.07-32.1-23.69-12.81-4.42-23.27-4.76-31.58-.71-8.26,4.04-14.84,10.42-19.68,19.16-4.77,8.62-8.04,18.43-9.71,29.36-1.63,10.73-2.34,20.83-2.07,30.33.19,7.02.81,13.53,1.86,19.55-1.54,1.8-3.11,3.52-4.72,5.14-2.94,2.95-6.21,5.27-9.82,6.95-3.6,1.69-7.71,2.66-12.32,2.89-4.62.23-10.08-.63-16.38-2.63-5.28-1.68-10.02-3.96-14.21-6.82-4.22-2.88-7.8-6.65-10.71-11.31-2.95-4.7-5.24-10.66-6.85-17.91-1.63-7.34-2.58-16.5-2.81-27.56-.19-8.86.17-17.91,1.04-27.15.89-9.4,2.38-17.73,4.41-24.96,2.06-7.32,4.65-13.01,7.76-17.03,3.12-4.05,6.75-5.08,10.94-3.11,3.75,1.77,6.78,5.57,9.16,11.37,2.34,5.74,3.52,13.82,3.55,24.14.01,2.49-.04,4.45-.13,5.89-.1,1.44-.35,3.06-.76,4.85,2.31,2.4,4.62,4.42,6.93,6.05,2.29,1.63,4.28,2.76,5.95,3.41,3.73,1.44,6.67.52,8.8-2.77,2.14-3.29,3.17-8.13,3.14-14.56-.02-4.49-.65-9.45-1.87-14.92-1.23-5.52-3.38-11.1-6.41-16.77-3.07-5.74-7.2-11.3-12.39-16.75-5.24-5.49-11.88-10.25-19.95-14.33-13.18-6.67-23.94-8.43-32.53-4.92-8.55,3.49-15.46,9.78-20.66,18.9-5.12,8.99-8.71,19.66-10.6,31.93-1.86,12.01-2.71,23.29-2.54,33.84.25,15.22,2.2,28.6,5.8,40.2,3.52,11.36,8.38,21.13,14.51,29.33,6.03,8.08,13.05,14.74,21,20,7.85,5.19,16.28,9.17,25.23,11.94,10.76,3.32,20.09,4.47,27.95,3.6,7.84-.87,14.58-3.1,20.19-6.65,5.54-3.51,10.13-8,13.79-13.45,3.42,9.11,7.78,16.78,13.09,22.97,5.44,6.38,11.59,11.38,18.41,15.02,6.74,3.6,13.77,6.12,21.05,7.58,10.54,2.1,19.32,1.79,26.28-.78,6.97-2.58,12.57-6.89,16.79-12.93,4.27-6.09,7.18-13.71,8.8-22.91,1.64-9.36,2.3-19.82,2.05-31.47-.04-1.42-.07-2.79-.09-4.13-.03-1.33-.16-2.73-.38-4.22,4.35.14,8.69-.1,12.99-.72,2.09-.31,4.13-.7,6.13-1.18-.03.2-.07.4-.1.6-1.39,9.73-2,18.7-1.81,26.94.28,11.93,1.87,22.12,4.82,30.65,2.88,8.37,6.86,15.27,11.9,20.72,4.96,5.38,10.76,9.47,17.36,12.28,6.52,2.78,13.55,4.5,21.03,5.16,9.01.79,16.86.07,23.53-2.06,6.66-2.12,12.41-5.17,17.26-9.13,4.78-3.89,8.78-8.45,12.02-13.64,2.64,6.96,6.07,12.59,10.32,16.86,4.37,4.41,9.35,7.57,14.93,9.49,5.53,1.9,11.32,2.86,17.37,2.9,8.76.04,16.11-1.65,22.05-4.99,5.95-3.34,10.8-7.95,14.57-13.82,3.79-5.91,6.51-12.91,8.15-21.03,1.67-8.24,2.52-17.24,2.56-27.05.01-1.19.01-2.35.02-3.47,0-1.11-.07-2.28-.23-3.49,3.64-.64,7.27-1.6,10.89-2.87,2.34-.83,4.6-1.78,6.8-2.84-.07,14.19-.21,28.4-.42,42.63-.17,10.97,2.02,19.54,6.64,25.71,4.52,6.07,12.59,8.71,24.07,7.84,2.96-.23,6.37-.93,10.22-2.12,3.83-1.18,7.63-3.35,11.36-6.5,3.44-2.91,6.61-6.89,9.49-11.92.96,3.14,2.28,5.91,4,8.25,4.14,5.64,11.66,7.83,22.45,6.47,2.78-.35,5.99-1.18,9.62-2.5,3.62-1.32,7.22-3.58,10.77-6.8,3.56-3.22,6.84-7.62,9.81-13.22.02-.03.03-.06.05-.09,1.31,2.61,2.84,4.86,4.6,6.71,3.25,3.4,7.24,5.57,11.97,6.49,4.69.92,9.83.88,15.42-.14,4.01-.72,7.68-1.88,11.01-3.44,3.33-1.57,6.29-3.75,8.86-6.54,2.58-2.79,4.68-6.29,6.28-10.5,1.61-4.23,2.61-9.38,3-15.49-2.72,3.47-5.99,6.69-9.84,9.64-3.85,2.95-7.65,4.75-11.38,5.41-4.15.73-7.7-.35-10.62-3.26-2.97-2.94-4.52-9.13-4.71-18.65,5.3-1.08,10.26-3.08,14.87-5.97,4.6-2.88,8.66-6.38,12.18-10.48Zm-427.31,2.37c-.68,6.76-1.9,12.38-3.68,16.92-1.77,4.5-4.12,7.81-7.04,9.94-2.91,2.13-6.43,2.76-10.53,1.88-2.16-.46-4.43-1.47-6.83-3.05-2.41-1.58-4.66-4.06-6.73-7.44-2.1-3.41-3.89-8.06-5.36-13.98-1.5-6-2.37-13.68-2.62-23.09-.21-7.43.06-15.17.79-23.24.73-8.17,2.05-15.57,3.92-22.15,1.89-6.65,4.35-11.9,7.36-15.74,3.02-3.85,6.67-5.09,10.99-3.72,2.15.68,4.74,2.67,7.8,5.92,3.03,3.24,5.65,9.05,7.91,17.36-2.12.3-3.85,1.49-5.17,3.57-1.32,2.07-1.95,5.44-1.87,10.07.06,3.72.8,7.27,2.23,10.65,1.42,3.35,4.57,6.18,9.45,8.43.03,1.57.07,3.14.1,4.71.19,8.49-.04,16.13-.72,22.96Zm219.53,6.3c0,7.09-.38,13.55-1.13,19.43-.74,5.82-1.93,10.78-3.56,14.93-1.63,4.12-3.7,7.33-6.22,9.62-2.52,2.3-5.48,3.43-8.89,3.38-1.8-.02-3.67-.49-5.63-1.42-1.97-.92-3.78-2.62-5.42-5.11-1.65-2.5-3.02-6.09-4.1-10.8-1.09-4.75-1.64-11-1.68-18.77-.02-6.14.32-12.59,1.03-19.38.71-6.87,1.88-13.2,3.5-18.95,1.62-5.8,3.71-10.57,6.24-14.28,2.55-3.72,5.63-5.44,9.26-5.15,1.82.15,3.99,1.28,6.56,3.38,2.54,2.08,4.73,6.37,6.57,12.81-1.79.65-3.25,1.95-4.38,3.92-1.13,1.96-1.69,4.86-1.68,8.68.02,3.08.59,5.89,1.74,8.45,1.14,2.53,3.74,4.32,7.79,5.33v3.93Zm190.27-7.49c-2.84,2.16-5.93,3.64-9.26,4.41.35-5.07.99-10.45,1.92-16.16.93-5.77,2.13-11.12,3.59-16.02,1.47-4.95,3.13-9.1,4.99-12.44,1.87-3.35,3.98-5.18,6.36-5.48,1.84-.23,3.48.74,4.94,2.92,1.44,2.17,2.08,6.31,1.88,12.41-.13,4.13-.82,8.16-2.07,12.08-1.24,3.9-2.9,7.39-4.98,10.45-2.07,3.06-4.53,5.67-7.37,7.83Z"/>
    <path class="cls-1" d="m199.33,309.24c9.56,18.8,9.29,65.56,4.36,104.73.03,2.64,1.39,5.09,3.61,6.52,6.69,4.31,25.32,12.64,45.9,12.64s39.24-8.33,45.95-12.64c2.23-1.43,3.58-3.89,3.61-6.53-3.35-57.04-3.5-77.16,2.92-97.29,12.05-37.82,37.88-80.53,64.68-87.35,3.28-.83,3.12-5.56-.21-6.14-2.84-.49-5.72-.75-8.63-.75-22,0-42.32,14.41-58.77,38.8-2.11,3.13-4.15,6.41-6.13,9.86,0,0,0,0,0,.01-4.96,6.78-6.49,12.52-12.06,17.63-9.5,8.71-16.31,11.31-31.33,12.26-15.02-.95-19.79-4.02-31.33-12.26-6.84-4.89-8.31-10.84-13.27-17.63,0,0,0,0,0-.01-1.98-3.44-4.02-6.73-6.13-9.86-16.45-24.39-36.77-38.8-58.77-38.8-2.91,0-5.79.25-8.63.75-3.33.58-3.49,5.31-.21,6.14,26.89,6.84,50.57,52.63,64.45,79.92Z"/>
    <path class="cls-1" d="m253.26,231.77c-7.48,0-14.87,1.36-21.36,3.93l-7.01,2.77c-1.51,3.63-2.34,7.6-2.34,11.77,0,16.94,13.74,30.68,30.68,30.68s30.68-13.74,30.68-30.68c0-3.98-.76-7.78-2.13-11.27l-7.97-3.32c-6.09-2.54-13.2-3.88-20.55-3.88Z"/>
    <path class="cls-1" d="m229.68,194.42c-.18,10.87-.29,24.87.07,34.03.89-.35,1.79-.68,2.72-.99.11-.04.22-.08.34-.11.58-.19,1.16-.38,1.76-.55,5.88-1.75,12.27-2.68,18.7-2.68,3.43,0,6.86.26,10.24.81.48.08.96.16,1.44.25,3.09.58,6.12,1.39,9.03,2.46.25.09.5.18.75.28.45.17.89.35,1.34.54,0-.78-.31-16.48-.55-28.72,6.05-2.63,10.09-7.42,10.09-12.89,0-3.12-1.32-6.02-3.57-8.43.43-1.06.74-2.17.88-3.33,1.05-8.46-6.33-16.34-16.48-17.6-.46-.06-.92-.1-1.38-.13h0c-.46-.03-.91-.04-1.36-.04h0c-1.67,0-3.29.19-4.83.55-4.85-4.02-11.54-6.5-18.92-6.5-14.83,0-26.86,10.02-26.86,22.38,0,9.33,6.86,17.33,16.6,20.69Z"/>
    <path class="cls-1" d="m815.83,305.98c-2.26,3.35-4.44,6.87-6.56,10.55,0,0,0,0,0,.01-5.31,7.26-6.94,13.4-12.91,18.87-10.17,9.33-17.46,12.1-33.53,13.13-16.07-1.02-21.18-4.31-33.53-13.13-7.32-5.23-8.9-11.61-14.2-18.87,0,0,0,0,0-.01-2.12-3.69-4.31-7.21-6.56-10.55-17.61-26.1-39.36-41.53-62.91-41.53-3.12,0-6.2.27-9.24.8-3.57.62-3.74,5.68-.23,6.57,28.78,7.33,54.13,56.34,68.99,85.55,10.24,20.13,9.94,70.18,4.67,112.11.03,2.83,1.48,5.45,3.86,6.98,7.16,4.61,27.11,13.53,49.14,13.53s42.01-8.92,49.19-13.53c2.38-1.53,3.84-4.16,3.87-6.99-3.59-61.06-3.74-82.6,3.12-104.14,12.9-40.48,40.55-86.21,69.24-93.51,3.51-.89,3.34-5.96-.23-6.57-3.04-.53-6.13-.8-9.24-.8-23.55,0-45.3,15.43-62.91,41.53Z"/>
    <path class="cls-1" d="m762.85,274.44c-8.01,0-15.91,1.45-22.87,4.2l-7.5,2.97c-1.61,3.88-2.51,8.14-2.51,12.6,0,18.14,14.7,32.84,32.85,32.84s32.85-14.7,32.85-32.84c0-4.26-.81-8.33-2.28-12.06l-8.53-3.56c-6.52-2.72-14.13-4.16-22-4.16Z"/>
    <path class="cls-1" d="m719.84,212.31c0,9.99,7.34,18.55,17.77,22.15-.19,11.64-.31,26.63.07,36.43.95-.38,1.92-.73,2.91-1.06.12-.04.24-.08.36-.12.62-.2,1.25-.4,1.88-.59,6.3-1.87,13.13-2.87,20.01-2.87,3.67,0,7.35.28,10.96.87.52.08,1.03.17,1.54.27,3.31.62,6.55,1.49,9.67,2.64.27.1.54.2.8.3.48.18.96.38,1.43.57,0-.83-.33-17.64-.58-30.75,6.47-2.82,10.8-7.95,10.8-13.8,0-3.34-1.41-6.45-3.82-9.02.46-1.13.79-2.32.94-3.57,1.12-9.06-6.77-17.5-17.64-18.85-.49-.06-.99-.11-1.47-.14h0c-.49-.03-.97-.05-1.45-.05h0c-1.78,0-3.52.2-5.17.59-5.2-4.3-12.35-6.96-20.26-6.96-15.88,0-28.75,10.73-28.75,23.96Z"/>
    <path class="cls-1" d="m463.96,300.75c-8.53,39.96-.7,105.76.28,187.15-9.97-3.68-17.77-7.68-22.23-10.55-3.54-2.28-5.7-6.19-5.75-10.39-3.63-107.53,7.51-136.87-6.94-166.81-21.21-43.92-67.07-116.4-109.9-127.3-5.22-1.33-4.96-8.86.34-9.78,4.53-.79,9.12-1.19,13.76-1.19,35.03,0,67.4,22.96,93.6,61.8,3.36,4.98,6.61,10.22,9.76,15.7t.01.02c7.9,10.81,17.49,20.3,28.38,28.08,3.56,2.54,6.71,4.77,9.65,6.73-5.16,6.82-8.66,15.74-10.96,26.54Z"/>
    <path class="cls-1" d="m710.91,172.85c-42.68,10.87-93.01,78.9-112.19,139.14-10.22,32.05-.6,54.34-4.65,154.95-.05,4.22-2.21,8.13-5.75,10.4-5.17,3.32-14.82,8.16-27.11,12.26,1.09-81.99,10.95-148.43,2.23-188.73-2.17-10.05-5.5-18.48-10.41-25.11,3.63-2.31,7.5-5.04,12.03-8.28,10.89-7.78,20.48-17.27,28.38-28.08,0-.01.01-.01.01-.02,3.16-5.48,6.41-10.72,9.77-15.7,26.2-38.84,58.56-61.8,93.6-61.8,4.64,0,9.22.4,13.75,1.19,5.31.92,5.56,8.45.34,9.78Z"/>
    <circle class="cls-1" cx="515.16" cy="196.51" r="48.87" transform="translate(-24.83 85.06) rotate(-9.22)"/>
    <path class="cls-1" d="m474.5,78.06c-.15,16.96-.15,57.7.42,72.45,11.15-9.77,25.28-15.1,40.24-15.1s29.09,5.33,40.24,15.1c0-1.25,0-43.31,0-62.36,9.7-4.69,16.1-12.68,16.1-21.75,0-5.32-2.21-10.27-5.99-14.4.23-.51.44-1.02.63-1.55,5.01-13.94-4.5-30.12-21.24-36.12-6.39-2.29-12.9-2.77-18.79-1.71-8.8-7.76-21.26-12.61-35.09-12.61-26.67,0-48.29,18.02-48.29,40.24,0,17.39,13.24,32.2,31.77,37.82Z"/>
    <path class="cls-1" d="m889.33,623.37c-.56-.19-1.16.12-1.35.68-5.35,15.73-12.29,37.24-17.47,52.88-.51,3.7-3.08,7.29-5.67,10.04-26.67,26.84-93.54,47.57-131.11,57.61-102.31,26.73-209.8,35.89-314.21,21.43-56.28-7.5-112.97-17.99-166.26-36.7-33.05-11.81-66.15-26.78-92.24-50.64-9.87-8.92-17.89-19.47-23.64-31.2-4.39-9.63-6.89-20.03-7.14-30.68.83-11.14,1.35-22.31,1.65-33.47.17-5.8.19-11.61.19-17.41,0-5.8-.09-11.6-.27-17.39-.31-9.33-7.85-16.96-17.3-17.22-9.82-.26-17.99,7.48-18.26,17.3-.15,5.54-.32,11.07-.55,16.6-.49,11.03-1.12,22.05-2.03,33.05-.47,5.74-1.04,11.47-1.62,17.19,0,0,0,.97,0,.97-.18,35.98,16.02,66.94,41.88,91.09,67.59,63.27,192.06,84.89,281.61,93.82,54.64,5.7,109.95,5.01,164.41-1.85,72.26-9.04,143.52-26.56,210.47-55.32,25.03-11.09,50.06-23.37,71.23-41.23,7.04-6.31,15.33-14.57,16.28-24.63,2.92-12.44,8.81-38.48,12.11-53.69.12-.53-.18-1.07-.7-1.24Z"/>
    <path class="cls-1" d="m838.46,529.81c-81.32,12.61-164.3,7.44-245.87-.65-99.6-10.8-199.84-27.11-295.84-54.42-43.92-12.96-137.73-42.63-173.82-87.22,16.64-6.9,39.44-12.84,67.5-17.44.55-24.46-1.46-44.77-5.82-53.35-2.66-5.22-6.58-12.94-11.31-21.4-43.34,7.99-101.51,24.77-99.67,63.4.2,2.21.5,4.4.86,6.56-.8.13-1.27.21-1.27.21,1.76,21.09,4.83,41.98,8.25,62.83,1.59,9.63,3.42,19.86,5.33,29.93-9.69-4.25-19.2-8.89-28.46-13.9-10.75-5.94-21.45-12.1-30.52-20.18-1.43-1.28-2.45-2.54-3.46-3.64-.04-.02-.06-.02-.08-.02.41-.58.97-1.15,1.58-1.79,3.52-3.24,7.92-5.37,12.61-7.25,6.77-2.61,14.03-4.4,21.29-5.56,3.72-.65,7.5-1.1,11.32-1.52l.14-2.13c-7.65-1.84-15.46-2.9-23.39-3.13-10.04-.18-21.55.88-31.17,6.16-17.77,10.45-12.05,24.82-.98,37.76,19.05,21.44,42.75,37.24,67.41,50.98,7.03,3.86,14.27,7.39,21.69,10.68,2.87,1.27,6.16,1.82,9.49,1.41,9.82-1.23,16.78-10.18,15.56-19.99l-.2-1.59-1.96-15.72c-1.49-11.13-3.06-22.28-4.75-33.41,48.06,36.64,120.07,58.76,164.91,71.18,149.8,40.19,402.81,68.68,552.58,32.63,28.28-7.06,85.97-24.55,88.53-59.03-5.7,32.64-62.24,44.66-90.48,49.61ZM24.08,421.26c-.05.25-.16.75-.31.96-.07.03-.09-.01-.13-.07.02-.53.23-1.02.54-1.5-.03.12-.05.3-.1.61Z"/>
    <path class="cls-1" d="m918.14,397.74c-13.36-3.22-14.04-18.83-38.09-8.26-3.54,1.56-7.2-2.12-5.56-5.63,8.56-18.36,30.13-28.3,52.62-23.34,12.4,3,16.61,12.82,14.13,23.09-2.48,10.28-12.82,16.61-23.09,14.13Z"/>
    <path class="cls-1" d="m901.96,332.04c-4.13,4.67-12.24,2.36-12.36-3.56-.61-31.01,24.26-60.11,61.29-69.73,20.61-4.95,33.99,5.26,37.77,20.94,3.78,15.68-7,31.74-24.08,35.86-22.2,5.34-34.55-15.25-62.63,16.49Z"/>
    <path class="cls-1" d="m19.22,196.96c17.69,4.44,28.11-13.49,49.87,13.75,3.2,4.01,9.77,1.94,10.01-3.19,1.25-26.85-18-51.83-47.49-59.84-16.42-4.11-27.41,4.84-30.84,18.45-3.42,13.61,4.84,27.41,18.45,30.84Z"/>
    <path class="cls-1" d="m78.71,129.68c1.98,8.04,12.94,10.31,16.72,3.42,19.82-36.09,8.5-85.61-29.11-119.72C45.14-5.13,23.12-1.37,9.01,14.74-5.09,30.85-2.31,56.36,15.24,71.72c22.81,19.96,50,3.35,63.47,57.96Z"/>
  </g>
</svg>